<?xml version="1.0" standalone="no"?>
<!DOCTYPE svg PUBLIC "-//W3C//DTD SVG 20010904//EN"
 "http://www.w3.org/TR/2001/REC-SVG-20010904/DTD/svg10.dtd">
<svg version="1.0" xmlns="http://www.w3.org/2000/svg"
 width="167.000000pt" height="212.000000pt" viewBox="0 0 167.000000 212.000000"
 preserveAspectRatio="xMidYMid meet">

<g transform="translate(0.000000,212.000000) scale(0.100000,-0.100000)"
fill="#000000" stroke="none">
<path d="M824 2057 c-2 -7 -10 -30 -17 -52 -10 -29 -20 -40 -35 -40 -12 0 -23
-3 -26 -6 -3 -3 -16 -47 -30 -98 -31 -116 -37 -124 -77 -104 -17 8 -48 17 -69
20 -39 5 -41 4 -174 -123 -82 -79 -130 -132 -123 -136 11 -5 378 -111 827
-237 l145 -41 127 127 c70 70 124 130 120 134 -4 3 -52 18 -107 32 -73 20
-101 24 -104 15 -8 -25 -137 -155 -160 -162 -14 -4 -48 1 -85 12 -57 18 -169
50 -326 92 -36 10 -84 23 -107 29 -26 7 -43 18 -43 26 0 8 23 41 52 72 57 64
67 73 86 73 25 0 11 -31 -38 -82 l-49 -53 27 -12 c15 -7 32 -12 37 -12 6 -1
30 70 54 157 55 198 101 345 111 355 4 5 45 -3 91 -17 46 -14 113 -33 148 -43
35 -10 65 -22 66 -28 2 -5 6 -31 10 -57 5 -39 10 -47 33 -53 50 -12 51 -19 26
-108 -35 -118 -81 -269 -90 -292 -6 -15 3 -11 33 15 45 38 86 111 103 181 5
24 19 75 29 112 19 71 19 72 -23 79 -12 2 -31 25 -49 61 -17 32 -40 65 -52 73
-12 8 -76 30 -141 50 -166 49 -194 55 -200 41z m-426 -509 c5 -25 -31 -41 -54
-24 -16 12 -16 16 -4 30 17 21 54 17 58 -6z m77 -28 c0 -18 -6 -26 -23 -28
-27 -4 -40 22 -22 44 19 22 45 13 45 -16z"/>
<path d="M962 1908 c-6 -24 -8 -46 -4 -49 4 -4 30 -10 58 -14 50 -6 51 -6 57
22 3 15 8 35 12 44 4 12 -5 18 -45 27 -69 16 -66 17 -78 -30z m48 -2 c0 -28
-17 -43 -32 -28 -7 7 -6 17 1 31 16 28 31 27 31 -3z m52 -2 c10 -9 -4 -44 -18
-44 -17 0 -25 15 -18 34 6 16 25 21 36 10z"/>
<path d="M620 1921 c-156 -65 -218 -90 -240 -96 -14 -4 -43 -15 -65 -25 -46
-21 -214 -91 -262 -110 l-33 -12 0 -364 c0 -381 4 -427 49 -557 28 -81 116
-242 164 -302 10 -11 1 102 -9 130 -5 13 -4 16 4 11 7 -4 12 -2 12 4 0 6 4 9
9 6 5 -4 8 2 6 11 -2 10 -4 18 -5 18 -2 0 -9 26 -15 65 -4 19 -12 63 -19 98
-7 34 -10 62 -6 62 4 0 6 10 5 22 -1 14 -11 25 -28 31 -34 11 -34 19 3 94 28
58 34 89 45 220 1 23 6 46 9 51 3 5 -5 13 -19 16 -35 9 -47 39 -49 125 -1 94
-3 92 182 274 132 129 142 137 179 137 22 0 54 -5 72 -11 18 -6 34 -9 36 -7 2
2 13 32 24 66 21 70 19 71 -49 43z"/>
<path d="M915 1809 c-4 -23 -18 -73 -31 -111 -21 -63 -22 -69 -6 -77 18 -9
124 -33 126 -29 19 40 67 201 63 211 -3 7 -31 19 -63 26 -33 8 -64 16 -71 18
-6 3 -14 -12 -18 -38z m85 -29 c0 -6 -7 -23 -16 -38 -11 -19 -12 -22 -1 -9 13
15 37 24 37 13 0 -24 -23 -56 -40 -56 -16 0 -20 -7 -20 -35 0 -31 -3 -35 -25
-35 -30 0 -35 33 -7 49 13 9 14 12 4 19 -16 10 -12 70 3 62 6 -3 9 -11 9 -17
-1 -7 2 -10 7 -7 5 3 9 18 9 35 0 22 5 29 20 29 11 0 20 -5 20 -10z"/>
<path d="M1330 1710 c-24 -80 -25 -110 -5 -110 21 0 181 -47 206 -61 11 -6 27
-26 35 -44 19 -45 19 -187 0 -223 -8 -15 -58 -70 -113 -122 -54 -52 -97 -98
-95 -103 1 -4 -1 -6 -5 -6 -20 3 -26 -2 -13 -11 10 -6 11 -10 3 -10 -7 0 -13
-10 -13 -22 0 -13 -6 -35 -14 -49 -19 -37 -29 -243 -21 -431 l8 -160 24 28
c95 114 167 238 213 365 53 146 59 206 60 575 1 185 -3 340 -7 344 -4 4 -61
30 -125 57 l-118 50 -20 -67z m-13 -802 c-3 -8 -6 -5 -6 6 -1 11 2 17 5 13 3
-3 4 -12 1 -19z"/>
<path d="M798 1573 c7 -3 16 -2 19 1 4 3 -2 6 -13 5 -11 0 -14 -3 -6 -6z"/>
<path d="M750 1541 c8 -5 31 -11 50 -15 24 -4 28 -3 15 2 -31 14 -83 24 -65
13z"/>
<path d="M930 1535 c46 -18 64 -17 25 0 -16 8 -37 14 -45 14 -8 0 1 -7 20 -14z"/>
<path d="M1008 1513 c7 -3 16 -2 19 1 4 3 -2 6 -13 5 -11 0 -14 -3 -6 -6z"/>
<path d="M885 1500 c11 -5 27 -9 35 -9 9 0 8 4 -5 9 -11 5 -27 9 -35 9 -9 0
-8 -4 5 -9z"/>
<path d="M1040 1506 c0 -2 7 -7 16 -10 8 -3 12 -2 9 4 -6 10 -25 14 -25 6z"/>
<path d="M237 1463 c-4 -3 -7 -27 -7 -53 0 -54 14 -70 75 -88 22 -6 67 -19
100 -29 71 -20 84 -28 67 -45 -10 -10 -74 -2 -142 19 -13 4 -13 4 0 -6 8 -6
39 -15 68 -21 28 -6 52 -14 52 -18 -1 -4 -52 -63 -115 -132 -63 -69 -115 -128
-115 -131 0 -6 18 -16 80 -43 40 -18 287 -97 400 -129 43 -12 86 -18 100 -14
24 6 82 70 200 220 41 52 48 57 75 51 17 -3 46 -7 65 -9 27 -3 23 -1 -17 12
-39 12 -53 21 -53 34 0 23 9 23 80 4 89 -24 90 -24 90 44 l0 59 -42 16 c-24 8
-79 25 -123 36 -147 40 -457 127 -710 201 -106 31 -118 33 -128 22z m113 -47
c6 -8 10 -25 8 -38 -2 -18 -9 -23 -33 -23 -24 0 -31 5 -33 23 -4 25 13 52 33
52 7 0 18 -7 25 -14z m117 -42 c3 -8 -2 -23 -11 -32 -15 -15 -17 -15 -32 0
-21 21 -11 48 16 48 11 0 23 -7 27 -16z m293 -181 c107 -31 217 -61 244 -67
27 -6 51 -16 52 -21 2 -6 -28 -48 -67 -95 -38 -47 -92 -113 -119 -146 -64 -79
-81 -82 -207 -43 -54 17 -134 41 -178 54 -92 27 -217 73 -227 83 -3 4 14 30
38 57 25 28 82 94 127 148 96 114 55 110 337 30z m420 -28 c10 -12 10 -18 0
-31 -12 -13 -15 -13 -28 0 -15 15 -10 46 6 46 5 0 15 -7 22 -15z"/>
<path d="M595 1180 c11 -5 27 -9 35 -9 9 0 8 4 -5 9 -11 5 -27 9 -35 9 -9 0
-8 -4 5 -9z"/>
<path d="M730 1140 c8 -5 22 -9 30 -9 10 0 8 3 -5 9 -27 12 -43 12 -25 0z"/>
<path d="M905 1089 c32 -10 61 -16 63 -14 5 4 -97 35 -112 34 -6 0 16 -9 49
-20z"/>
<path d="M705 1050 c27 -12 43 -12 25 0 -8 5 -22 9 -30 9 -10 0 -8 -3 5 -9z"/>
<path d="M865 1050 c27 -12 43 -12 25 0 -8 5 -22 9 -30 9 -10 0 -8 -3 5 -9z"/>
<path d="M470 1030 c8 -5 22 -9 30 -9 10 0 8 3 -5 9 -27 12 -43 12 -25 0z"/>
<path d="M810 1020 c8 -5 22 -9 30 -9 10 0 8 3 -5 9 -27 12 -43 12 -25 0z"/>
<path d="M528 1013 c7 -3 16 -2 19 1 4 3 -2 6 -13 5 -11 0 -14 -3 -6 -6z"/>
<path d="M678 1013 c7 -3 16 -2 19 1 4 3 -2 6 -13 5 -11 0 -14 -3 -6 -6z"/>
<path d="M868 1003 c7 -3 16 -2 19 1 4 3 -2 6 -13 5 -11 0 -14 -3 -6 -6z"/>
<path d="M790 980 c8 -5 22 -9 30 -9 10 0 8 3 -5 9 -27 12 -43 12 -25 0z"/>
<path d="M658 973 c7 -3 16 -2 19 1 4 3 -2 6 -13 5 -11 0 -14 -3 -6 -6z"/>
<path d="M750 945 c19 -7 42 -13 50 -13 8 0 -1 6 -20 13 -19 7 -42 13 -50 13
-8 0 1 -6 20 -13z"/>
<path d="M470 940 c8 -5 22 -9 30 -9 10 0 8 3 -5 9 -27 12 -43 12 -25 0z"/>
<path d="M638 933 c7 -3 16 -2 19 1 4 3 -2 6 -13 5 -11 0 -14 -3 -6 -6z"/>
<path d="M745 900 c11 -5 29 -8 40 -8 16 0 15 2 -5 8 -34 11 -60 11 -35 0z"/>
<path d="M625 890 c27 -12 43 -12 25 0 -8 5 -22 9 -30 9 -10 0 -8 -3 5 -9z"/>
<path d="M730 860 c8 -5 22 -9 30 -9 10 0 8 3 -5 9 -27 12 -43 12 -25 0z"/>
<path d="M1025 1460 c27 -12 43 -12 25 0 -8 5 -22 9 -30 9 -10 0 -8 -3 5 -9z"/>
<path d="M1402 1335 l-123 -121 3 -72 3 -72 100 93 c149 137 146 133 143 219
l-3 73 -123 -120z"/>
<path d="M1110 960 c0 -5 5 -10 10 -10 6 0 10 -13 10 -30 0 -16 5 -30 10 -30
6 0 10 18 10 40 0 33 -3 40 -20 40 -11 0 -20 -4 -20 -10z"/>
<path d="M1220 935 c0 -19 5 -35 10 -35 6 0 10 16 10 35 0 19 -4 35 -10 35 -5
0 -10 -16 -10 -35z"/>
<path d="M1030 929 c0 -17 5 -29 11 -27 6 2 10 7 10 11 -1 4 -1 16 -1 27 0 11
-4 20 -10 20 -5 0 -10 -14 -10 -31z"/>
<path d="M260 871 c0 -6 5 -13 10 -16 6 -3 10 -19 10 -36 0 -19 5 -29 15 -29
11 0 15 12 15 45 0 41 -2 45 -25 45 -14 0 -25 -4 -25 -9z"/>
<path d="M1207 874 c-10 -10 -9 -66 2 -82 5 -8 17 -12 27 -10 15 3 19 12 19
48 0 38 -3 45 -20 48 -12 2 -24 0 -28 -4z m33 -39 c0 -14 -4 -25 -10 -25 -5 0
-10 11 -10 25 0 14 5 25 10 25 6 0 10 -11 10 -25z"/>
<path d="M1026 838 c8 -49 12 -58 24 -58 5 0 10 20 10 45 0 38 -3 45 -20 45
-17 0 -19 -5 -14 -32z"/>
<path d="M1110 845 c0 -8 5 -15 10 -15 6 0 10 -13 10 -30 0 -16 5 -30 10 -30
6 0 10 20 10 45 0 38 -3 45 -20 45 -11 0 -20 -7 -20 -15z"/>
<path d="M369 843 c-1 -5 0 -12 1 -18 1 -5 3 -19 4 -29 0 -11 6 -21 13 -23 14
-5 28 40 19 62 -5 15 -35 21 -37 8z"/>
<path d="M940 830 c0 -11 5 -20 10 -20 6 0 10 9 10 20 0 11 -4 20 -10 20 -5 0
-10 -9 -10 -20z"/>
<path d="M940 666 c3 -63 8 -118 13 -122 4 -4 7 43 7 104 0 62 0 115 1 120 0
4 -6 8 -13 10 -10 2 -12 -21 -8 -112z"/>
<path d="M550 761 c0 -6 5 -13 10 -16 6 -3 10 -19 10 -36 0 -16 5 -29 10 -29
6 0 10 20 10 45 0 38 -3 45 -20 45 -11 0 -20 -4 -20 -9z"/>
<path d="M654 762 c-15 -10 2 -55 18 -50 15 5 17 50 3 55 -5 1 -15 -1 -21 -5z"/>
<path d="M265 750 c-4 -7 -2 -17 4 -23 6 -6 11 -19 11 -29 0 -10 7 -18 16 -18
22 0 15 74 -8 78 -9 2 -19 -2 -23 -8z"/>
<path d="M362 718 c2 -35 7 -43 23 -43 16 0 21 8 23 43 3 39 2 42 -23 42 -25
0 -26 -3 -23 -42z m38 2 c0 -25 -18 -36 -26 -16 -8 21 3 49 16 41 5 -3 10 -15
10 -25z"/>
<path d="M460 750 c0 -5 5 -10 10 -10 6 0 10 -18 10 -40 0 -22 5 -40 10 -40 6
0 10 23 10 50 0 43 -3 50 -20 50 -11 0 -20 -4 -20 -10z"/>
<path d="M846 703 c3 -90 3 -93 14 -93 6 0 10 32 10 75 0 55 -3 75 -13 75 -10
0 -13 -16 -11 -57z"/>
<path d="M1017 754 c-4 -4 -7 -24 -7 -45 0 -28 5 -38 20 -42 27 -7 42 15 38
55 -2 24 -8 34 -23 36 -12 2 -24 0 -28 -4z m38 -39 c0 -16 -6 -30 -12 -32 -9
-3 -13 7 -13 32 0 25 4 35 13 33 6 -3 12 -17 12 -33z"/>
<path d="M1200 753 c0 -5 4 -13 9 -18 5 -6 11 -21 13 -34 1 -14 9 -26 16 -29
10 -3 12 7 10 39 -2 37 -7 45 -25 47 -13 2 -23 -1 -23 -5z"/>
<path d="M1107 700 c-8 -63 -1 -82 27 -78 18 3 21 11 24 66 3 60 2 62 -21 62
-22 0 -25 -5 -30 -50z m40 -18 c2 -39 -1 -52 -11 -52 -11 0 -15 14 -15 56 0
72 23 69 26 -4z"/>
<path d="M757 733 c-13 -12 -7 -33 8 -33 8 0 15 9 15 20 0 20 -11 26 -23 13z"/>
<path d="M647 684 c-12 -13 -8 -46 6 -41 7 3 13 -5 13 -19 1 -13 -2 -24 -7
-24 -5 0 -9 -4 -9 -10 0 -5 9 -10 21 -10 18 0 20 5 17 52 -2 38 -7 54 -18 56
-9 1 -19 0 -23 -4z"/>
<path d="M741 667 c-14 -14 -14 -44 -1 -52 6 -3 10 3 10 14 0 12 5 21 10 21
19 0 10 -38 -12 -53 -19 -13 -20 -16 -5 -16 12 -1 17 -9 17 -33 0 -55 17 -17
25 53 6 61 5 67 -14 72 -10 2 -24 0 -30 -6z"/>
<path d="M563 663 c-14 -5 -18 -59 -5 -67 4 -2 8 5 7 17 0 12 5 23 10 24 6 1
9 -9 8 -23 -1 -13 2 -22 8 -19 5 4 9 19 9 35 0 28 -14 41 -37 33z"/>
<path d="M260 649 c0 -14 25 -39 39 -39 6 0 11 11 11 25 0 20 -5 25 -25 25
-14 0 -25 -5 -25 -11z"/>
<path d="M367 644 c-3 -4 1 -17 9 -30 9 -13 13 -27 10 -32 -3 -5 -1 -22 4 -38
7 -24 8 -16 9 39 1 50 -2 67 -12 67 -8 0 -16 -3 -20 -6z"/>
<path d="M1205 640 c3 -5 15 -10 26 -10 11 0 17 5 14 10 -3 6 -15 10 -26 10
-11 0 -17 -4 -14 -10z"/>
<path d="M460 630 c0 -5 4 -10 9 -10 6 0 12 -21 14 -47 3 -47 3 -47 5 10 2 45
-1 57 -13 57 -8 0 -15 -4 -15 -10z"/>
<path d="M1017 634 c-8 -8 3 -65 16 -81 16 -21 27 -4 27 43 0 36 -3 44 -18 44
-10 0 -21 -3 -25 -6z m33 -44 c0 -16 -4 -30 -10 -30 -5 0 -10 14 -10 30 0 17
5 30 10 30 6 0 10 -13 10 -30z"/>
<path d="M1233 570 c0 -25 2 -35 4 -22 2 12 2 32 0 45 -2 12 -4 2 -4 -23z"/>
<path d="M267 583 c-4 -3 -7 -17 -7 -29 0 -23 31 -41 50 -29 17 10 11 44 -9
55 -23 12 -26 12 -34 3z m38 -33 c0 -7 -6 -15 -12 -17 -8 -3 -13 4 -13 17 0
13 5 20 13 18 6 -3 12 -11 12 -18z"/>
<path d="M830 581 c0 -5 7 -12 16 -15 10 -4 14 -14 11 -26 -3 -11 -2 -20 3
-20 9 0 20 51 13 62 -6 11 -43 10 -43 -1z"/>
<path d="M1114 566 c-10 -26 0 -51 21 -51 16 0 20 7 20 30 0 33 -30 49 -41 21z
m34 -24 c2 -15 -2 -22 -12 -22 -11 0 -16 9 -16 26 0 31 23 28 28 -4z"/>
<path d="M567 550 c3 -11 9 -20 13 -20 5 0 6 9 3 20 -3 11 -9 20 -13 20 -5 0
-6 -9 -3 -20z"/>
<path d="M656 528 c4 -7 11 -28 15 -48 6 -34 7 -33 8 13 1 36 -2 47 -15 47 -9
0 -12 -5 -8 -12z"/>
<path d="M930 500 c0 -5 4 -10 9 -10 5 0 12 -10 14 -22 3 -17 5 -14 6 10 1 22
-3 32 -14 32 -8 0 -15 -4 -15 -10z"/>
<path d="M1027 503 c-13 -12 -7 -71 7 -76 30 -12 50 45 24 71 -14 14 -22 15
-31 5z m31 -41 c2 -15 -2 -22 -12 -22 -11 0 -16 9 -16 26 0 31 23 28 28 -4z"/>
<path d="M462 458 c2 -30 8 -43 18 -43 10 0 16 13 18 43 3 37 1 42 -18 42 -19
0 -21 -5 -18 -42z m28 -3 c0 -14 -4 -25 -10 -25 -5 0 -10 11 -10 25 0 14 5 25
10 25 6 0 10 -11 10 -25z"/>
<path d="M550 466 c0 -19 4 -37 9 -41 6 -3 7 9 4 31 -5 29 -3 36 8 32 8 -3 14
-17 14 -31 -1 -15 3 -27 8 -27 4 0 7 15 5 33 -2 24 -8 33 -25 35 -20 3 -23 -1
-23 -32z"/>
<path d="M1217 488 c5 -7 8 -23 7 -35 0 -13 3 -23 7 -23 5 0 9 16 9 35 0 26
-4 35 -16 35 -11 0 -14 -4 -7 -12z"/>
<path d="M278 483 c6 -2 12 -18 12 -34 0 -16 4 -29 10 -29 5 0 8 10 6 23 -3
12 -5 28 -5 35 -1 6 -9 12 -18 11 -11 0 -13 -3 -5 -6z"/>
<path d="M376 482 c7 -4 14 -18 17 -32 4 -21 4 -20 6 8 1 24 -3 32 -16 32 -12
0 -14 -3 -7 -8z"/>
<path d="M742 453 c2 -27 8 -39 21 -41 14 -3 17 4 17 37 0 35 -3 41 -21 41
-17 0 -20 -5 -17 -37z m28 -3 c0 -16 -4 -30 -10 -30 -5 0 -10 14 -10 30 0 17
5 30 10 30 6 0 10 -13 10 -30z"/>
<path d="M834 466 c-11 -28 0 -61 21 -61 16 0 20 7 20 35 0 25 -5 36 -18 38
-9 2 -20 -3 -23 -12z m36 -26 c0 -25 -18 -36 -26 -16 -8 21 3 49 16 41 5 -3
10 -15 10 -25z"/>
<path d="M1123 473 c-14 -5 -18 -49 -5 -57 4 -2 8 5 7 17 0 12 5 22 10 22 6 0
10 -10 10 -22 -1 -13 3 -19 8 -14 11 11 5 54 -8 57 -5 1 -16 0 -22 -3z"/>
<path d="M657 422 c-28 -6 -19 -56 11 -60 19 -3 22 1 22 27 0 33 -6 39 -33 33z
m23 -32 c0 -11 -4 -20 -9 -20 -14 0 -23 18 -16 30 10 17 25 11 25 -10z"/>
<path d="M930 391 c0 -25 4 -31 21 -31 16 0 20 5 17 27 -2 17 -10 29 -20 31
-14 3 -18 -3 -18 -27z m30 -1 c0 -11 -4 -20 -10 -20 -5 0 -10 9 -10 20 0 11 5
20 10 20 6 0 10 -9 10 -20z"/>
<path d="M370 390 c0 -5 4 -10 9 -10 6 0 12 -15 14 -32 3 -29 4 -27 5 10 2 31
-2 42 -13 42 -8 0 -15 -4 -15 -10z"/>
<path d="M1204 385 c-9 -22 4 -65 20 -65 22 0 39 28 32 55 -7 28 -43 35 -52
10z m36 -25 c0 -16 -4 -30 -9 -30 -10 0 -21 47 -13 55 13 13 22 3 22 -25z"/>
<path d="M558 384 c6 -3 12 -19 12 -35 0 -16 5 -29 11 -29 6 0 9 14 7 32 -2
24 -8 33 -23 35 -11 2 -14 0 -7 -3z"/>
<path d="M1027 384 c-10 -10 -9 -64 2 -64 4 0 6 11 3 25 -2 14 0 25 6 25 6 0
13 -12 15 -27 4 -22 4 -20 3 6 -1 33 -15 49 -29 35z"/>
<path d="M460 361 c-15 -29 -2 -71 22 -71 16 0 19 6 16 42 -3 46 -21 60 -38
29z m30 -31 c0 -16 -4 -30 -10 -30 -5 0 -10 14 -10 30 0 17 5 30 10 30 6 0 10
-13 10 -30z"/>
<path d="M741 366 c-20 -24 -10 -70 17 -74 22 -3 23 0 20 39 -3 45 -17 59 -37
35z m29 -36 c0 -31 -16 -41 -26 -15 -8 19 2 45 16 45 5 0 10 -13 10 -30z"/>
<path d="M834 357 c-3 -9 -4 -28 -2 -44 2 -20 8 -28 23 -28 17 0 20 7 20 40 0
30 -4 41 -18 43 -9 2 -20 -3 -23 -11z m31 -30 c0 -39 -19 -38 -23 2 -3 24 0
32 10 29 7 -3 13 -17 13 -31z"/>
<path d="M1117 334 c-4 -4 -7 -25 -7 -46 0 -35 2 -39 23 -36 19 3 22 9 22 43
0 28 -5 41 -15 43 -9 1 -19 0 -23 -4z m31 -45 c-5 -35 -28 -36 -28 -1 0 16 3
32 7 36 11 11 25 -10 21 -35z"/>
<path d="M652 308 c9 -7 19 -24 21 -38 3 -18 5 -14 6 13 1 32 -2 37 -21 37
-19 0 -20 -1 -6 -12z"/>
<path d="M938 308 c6 -7 12 -26 15 -43 3 -24 4 -22 6 13 1 33 -3 42 -15 42
-12 0 -14 -3 -6 -12z"/>
<path d="M557 274 c-9 -9 -9 -68 -1 -77 4 -3 15 -2 26 4 14 8 18 19 16 42 -3
30 -25 47 -41 31z m31 -37 c2 -19 -1 -27 -12 -27 -11 0 -16 10 -16 31 0 38 24
35 28 -4z"/>
<path d="M1020 240 c0 -37 2 -41 23 -38 18 2 22 9 22 38 0 29 -4 36 -22 38
-21 3 -23 -1 -23 -38z m38 -3 c2 -19 -1 -27 -12 -27 -11 0 -16 10 -16 31 0 38
24 35 28 -4z"/>
<path d="M737 243 c-13 -12 -7 -50 9 -64 14 -11 18 -11 29 4 25 35 -9 90 -38
60z m33 -28 c0 -14 -4 -25 -9 -25 -12 0 -23 29 -15 41 10 18 24 9 24 -16z"/>
<path d="M848 245 c-8 -8 4 -65 13 -65 12 0 12 57 0 64 -4 3 -10 3 -13 1z"/>
<path d="M650 201 c0 -6 5 -11 11 -11 7 0 10 -13 7 -34 -3 -25 0 -32 10 -29
20 8 12 77 -10 81 -10 2 -18 -1 -18 -7z"/>
<path d="M927 203 c-13 -12 -7 -61 9 -74 14 -11 18 -11 28 3 18 24 8 78 -13
78 -10 0 -21 -3 -24 -7z m33 -33 c0 -16 -4 -30 -10 -30 -5 0 -10 14 -10 30 0
17 5 30 10 30 6 0 10 -13 10 -30z"/>
<path d="M737 133 c-12 -12 -7 -60 8 -73 22 -18 35 -3 35 41 0 31 -4 39 -18
39 -10 0 -22 -3 -25 -7z m33 -33 c0 -16 -5 -30 -10 -30 -14 0 -24 26 -16 45
10 26 26 16 26 -15z"/>
<path d="M832 103 c2 -30 7 -38 23 -38 16 0 21 8 23 38 3 34 1 37 -23 37 -24
0 -26 -3 -23 -37z m33 -3 c0 -13 -6 -25 -12 -27 -9 -3 -13 6 -13 27 0 21 4 30
13 28 6 -3 12 -15 12 -28z"/>
</g>
</svg>
